<?xml version="1.0" encoding="utf-8"?>
<!-- Generator: Adobe Illustrator 17.1.0, SVG Export Plug-In . SVG Version: 6.00 Build 0)  -->
<!DOCTYPE svg PUBLIC "-//W3C//DTD SVG 1.1//EN" "http://www.w3.org/Graphics/SVG/1.1/DTD/svg11.dtd">
<svg version="1.1" id="圖層_1" xmlns="http://www.w3.org/2000/svg" xmlns:xlink="http://www.w3.org/1999/xlink" x="0px" y="0px"
	 viewBox="0 0 50 50" enable-background="new 0 0 50 50" xml:space="preserve">
<rect x="21.3" y="-6.6" transform="matrix(-0.7071 -0.7071 0.7071 -0.7071 25.0341 60.4114)" display="none" fill="#D25251" width="7.5" height="63.2"/>
<rect x="21.2" y="-6.6" transform="matrix(0.7071 -0.7071 0.7071 0.7071 -10.3861 24.9852)" display="none" fill="#D25251" width="7.5" height="63.2"/>
<path fill="#AA4444" d="M25,5.4C14.2,5.4,5.4,14.2,5.4,25c0,10.8,8.8,19.6,19.6,19.6c10.8,0,19.6-8.8,19.6-19.6
	C44.6,14.2,35.8,5.4,25,5.4z M25,39.1c-7.8,0-14.1-6.3-14.1-14.1S17.2,10.9,25,10.9c7.8,0,14.1,6.3,14.1,14.1
	C39.1,32.8,32.8,39.1,25,39.1z"/>
</svg>
