<?xml version="1.0" encoding="utf-8"?>
<!-- Generator: Adobe Illustrator 17.1.0, SVG Export Plug-In . SVG Version: 6.00 Build 0)  -->
<!DOCTYPE svg PUBLIC "-//W3C//DTD SVG 1.1//EN" "http://www.w3.org/Graphics/SVG/1.1/DTD/svg11.dtd">
<svg version="1.1" id="圖層_1" xmlns="http://www.w3.org/2000/svg" xmlns:xlink="http://www.w3.org/1999/xlink" x="0px" y="0px"
	 viewBox="0 0 50 50" enable-background="new 0 0 50 50" xml:space="preserve">
<path display="none" fill="#D25251" d="M25,50C11.2,50,0,38.8,0,25S11.2,0,25,0s25,11.2,25,25S38.8,50,25,50z M25,6
	C14.5,6,6,14.5,6,25s8.5,19,19,19s19-8.5,19-19S35.5,6,25,6z"/>
<rect x="20.8" y="2.2" transform="matrix(-0.7071 0.7071 -0.7071 -0.7071 60.3545 24.9995)" fill="#AA4444" width="8.4" height="45.5"/>
<rect x="20.8" y="2.3" transform="matrix(0.7071 0.7071 -0.7071 0.7071 25.0003 -10.3549)" fill="#AA4444" width="8.4" height="45.5"/>
</svg>
