<svg id="圖層_1" data-name="圖層 1" xmlns="http://www.w3.org/2000/svg" xmlns:xlink="http://www.w3.org/1999/xlink" viewBox="0 0 120.3 96.4"><defs><style>.cls-1{fill:none;}.cls-2{fill:#8bb933;}.cls-3{fill:#613b23;}.cls-4{fill:#5fa131;}.cls-5{clip-path:url(#clip-path);}.cls-6{opacity:0.36;}.cls-7{clip-path:url(#clip-path-2);}.cls-8{opacity:0.28;}.cls-9{fill:#fff;}</style><clipPath id="clip-path"><path class="cls-1" d="M64.5,66L63.6,53.4c1.7,0.7,3.3.2,4.5-1.8,2.7,1.3,4.8.6,5.7-2.3,2.9,0.6,4.8-.6,4.9-3.6,3-.1,4.5-1.7,3.9-4.7,2.9-.8,3.9-2.8,2.6-5.5,2.5-1.5,3.1-3.7,1.1-6,2.1-2.1,2.1-4.4-.4-6.1,1.5-2.6.9-4.7-1.9-5.8,0.8-2.9-.3-4.9-3.3-5.2,0-3-1.5-4.6-4.5-4.2-0.7-2.9-2.6-4.1-5.4-2.9C69.4,2.7,67.3,2,64.9,3.8c-2-2.2-4.2-2.4-6,.1C56.4,2.2,54.2,2.6,53,5.4c-2.8-1-4.8-.1-5.3,2.9-2.9-.2-4.6,1.2-4.4,4.2-3,.5-4.3,2.3-3.3,5.2-2.7,1.2-3.6,3.3-1.9,5.8-2.4,1.9-2.6,4.1-.4,6.1-1.9,2.4-1.6,4.6,1.1,6-1.2,2.7-.3,4.8,2.6,5.5-0.4,2.9.9,4.7,3.9,4.7,0.3,3,2,4.4,4.9,3.6,1.1,2.8,3.1,3.7,5.7,2.2a4.9,4.9,0,0,0,2.3,2L57.3,66C36.6,67.1,16.7,77.7,1.6,96.6l117.2-1.8C102.9,76.3,83.6,67,64.5,66Z"/></clipPath><clipPath id="clip-path-2"><path class="cls-1" d="M-32.1,239.8a37.3,37.3,0,0,1-4.7-.7l-5.1-.7c-3.4-.3-7.5-0.8-10.7.3a54.2,54.2,0,0,1-5.9,1.9,26.5,26.5,0,0,1-6.1.5,35,35,0,0,1-6.6-.5,37.3,37.3,0,0,1-5.2-1.7c-3.2-1.1-6.8-2.3-10.2-1.3l-0.7.2-0.6.3-1.5.7-2,.9-2.1,1.4a25.8,25.8,0,0,1-10.5,3.5c-3.5.3-6.6-.8-9.8-2.1a17.7,17.7,0,0,1-8.3-6.2H214.4c0-64.4-15.3-108.6-37-135-0.9-3.1-1.9-6.2-3-9.5C148.5,15,119.1-63.1,84.6-66,49.3-130.7,2.1-181.2-49.7-181.2h0c-43.1,0-56,44.5-61.5,101.9-3.9-3.1-8-4.9-12.3-4.9-20.2,0-35.9,87.9-45.9,167.4-23,31.3-43.4,87.7-59.6,132.3a128,128,0,0,0-27.9,35H-25.2q-3-5.5-6.5-10.7h-0.4Z"/></clipPath></defs><title>news</title><path class="cls-2" d="M64.9,3.8c2.4-1.8,4.5-1.1,5.9,1.5,2.8-1.2,4.7,0,5.4,2.9,3-.4,4.5,1.2,4.5,4.2,3,0.3,4.1,2.3,3.3,5.2,2.8,1.1,3.4,3.2,1.9,5.8,2.5,1.7,2.5,4,.4,6.1,2,2.3,1.4,4.5-1.1,6,1.3,2.7.3,4.7-2.6,5.5,0.6,3-.9,4.6-3.9,4.7-0.1,3-2,4.2-4.9,3.6-0.9,2.9-3,3.6-5.7,2.3-1.6,2.6-3.8,2.7-6.1.8-2.2,2.1-4.4,1.7-6.1-.8-2.6,1.5-4.6.6-5.7-2.2-2.9.8-4.6-.6-4.9-3.6-3,0-4.3-1.8-3.9-4.7-2.9-.7-3.8-2.8-2.6-5.5-2.7-1.4-3-3.6-1.1-6-2.2-2-2-4.2.4-6.1-1.7-2.5-.8-4.6,1.9-5.8-1-2.9.3-4.7,3.3-5.2-0.2-3,1.5-4.4,4.4-4.2,0.5-3,2.5-3.9,5.3-2.9,1.2-2.8,3.4-3.2,5.9-1.5C60.7,1.4,62.9,1.6,64.9,3.8Z"/><polygon class="cls-3" points="60.9 14.4 62.3 33.9 67 31.3 73.5 27.5 68 32.7 62.5 37.8 63 44.9 65.2 75.5 60.9 75.5 56.6 75.5 58.8 44.9 58.9 43.5 54.5 39.4 49 34.3 55.6 38 59.1 40 60.9 14.4"/><path class="cls-4" d="M119.3,95.4C84,54.4,32.7,56.8,2,95.4"/><g class="cls-5"><g class="cls-6"><g class="cls-7"><g class="cls-8"><path class="cls-9" d="M120.1,8.9c0.4-2.5,3.6-.6,5.8-1.6-1.3,1.1-1.5.8-1,2.8C122.6,10.1,122.2,8.8,120.1,8.9Z"/><path class="cls-9" d="M123.3,5.7a1.6,1.6,0,0,0-.5,1.2,3.7,3.7,0,0,0-2.1-.4c0-.6.1-1.1-0.5-1.2Z"/><path class="cls-9" d="M122.2,68.6c-0.1.7-.9,0.9-2.1,0.8,0.6-1.3-1.7-.3-1-1.6S120.6,68.8,122.2,68.6Z"/><path class="cls-9" d="M120.6,12c-2.7.2-2.5-1.8-2.6-3.6h1.6C120.7,10.5,118.6,10.4,120.6,12Z"/><path class="cls-9" d="M120.1,38.5c0.7,1.6-1.7.8-1,2.4-0.5,0-.4-0.5-0.5-0.8s-1.9.4-3.1,0.4v-2C117.6,38.9,117.7,38.6,120.1,38.5Z"/><path class="cls-9" d="M119.6,35c-1.8.3-1.6,2.2-4.2,2.8,0.8-.8,1.9-2.5-0.5-2.8C115.7,33.7,118.5,34.3,119.6,35Z"/><path class="cls-9" d="M118.5,63.4c-0.4.9-2.3-.3-3.1-0.4s1.3-.9,2.6-0.8S117.9,63.4,118.5,63.4Z"/><path class="cls-9" d="M116.4,42.5c-1.7-.2-2,0.9-3.1,0V41.3C114.3,40.6,117,40.8,116.4,42.5Z"/><path class="cls-9" d="M115.9,10q-2.5.3-2.1-1.6Q116.3,8.2,115.9,10Z"/><path class="cls-9" d="M115.4,47.2q0,0.6,0,1.2a4.3,4.3,0,0,1-2.6.4,12.2,12.2,0,0,1-1-2.8C113.9,45.7,113.3,47.5,115.4,47.2Z"/><path class="cls-9" d="M114.3,60.7c-1.4.1-1.7-.5-1.6-1.6S114.5,59.6,114.3,60.7Z"/><path class="cls-9" d="M112.8,74.5c0.5,1.2-1.2.7-2.1,0.8V74.1C111.8,73.9,112.1,74.4,112.8,74.5Z"/><path class="cls-9" d="M112.3,73.7a10.4,10.4,0,0,0-3.7,0c2.1-1,2.2-1.8,1.6-4.3h1.6C112.1,70.9,111.9,71.5,112.3,73.7Z"/><path class="cls-9" d="M109.6,66.2c-1.9.2-2.8-2.3-1.6-3.2S109.3,65,109.6,66.2Z"/><path class="cls-9" d="M109.1,10c-2.4,0-1-1.1-1-2.4C109.9,8.2,108.2,9,109.1,10Z"/><path class="cls-9" d="M109.1,50.4c-1.7.1-1.7-1.1-3.7-.8,0.1-1,1.8-.8,3.1-0.8S109.2,49.6,109.1,50.4Z"/><path class="cls-9" d="M109.1,52.7c0.7,1.8-2.4,2.1-2.1.4C108,53.2,108.1,52.7,109.1,52.7Z"/><path class="cls-9" d="M107.5,72.5c0.1,0.6-.5.7-0.5,1.2-1.8-.5-0.8-0.8-3.1-0.4C103.5,71.8,106.3,72.8,107.5,72.5Z"/><path class="cls-9" d="M105.4,33c-0.1-1,.2-1.7,1.6-1.6S106.8,33.1,105.4,33Z"/><path class="cls-9" d="M106,65.4a2.8,2.8,0,0,1-1,2.4C102.9,67.9,104.1,64.8,106,65.4Z"/><path class="cls-9" d="M105.4,34.6c-1.2-.1-2-0.6-3.7-0.4-0.5-1.7,1.3-1.7,3.1-1.6A2.1,2.1,0,0,1,105.4,34.6Z"/><path class="cls-9" d="M104.9,54.3c-2.3.6-1.4-1.3-3.1-1.2-0.2-1.5.4-2.3,2.1-2.4C103.4,52.6,104.7,53,104.9,54.3Z"/><path class="cls-9" d="M103.3,91.5c0.1,1-.2,1.7-1.6,1.6s-0.6-.8-0.5-1.6h2.1Z"/><path class="cls-9" d="M102.3,88.7c0.2,1-1,.9-0.5,2H99.2C99,89.1,100,88.4,102.3,88.7Z"/><path class="cls-9" d="M101.8,35.7c-0.2,1-1.6,1.1-2.6,1.6C97.7,36.2,99.7,35.4,101.8,35.7Z"/><path class="cls-9" d="M101.3,19.1v1.2c-1.2.3-4.1-.7-3.7,0.8-1.2-.1-0.3-1.7,0-2A5.6,5.6,0,0,0,101.3,19.1Z"/><path class="cls-9" d="M101.3,39.3c-0.1.7-.9,0.9-2.1,0.8V38.9C100.3,38.7,100.5,39.2,101.3,39.3Z"/><path class="cls-9" d="M98.6,62.2c0.5,1.2-1.2.7-2.1,0.8s0.9-1,0-1.2,0.2-.4.5-0.4h1c0.1,0.3-.2.4-0.5,0.4A2.6,2.6,0,0,0,98.6,62.2Z"/><path class="cls-9" d="M95,59.9c0-1.1,1.7-.9,1.6-2C98.6,58.3,96.8,60.1,95,59.9Z"/><path class="cls-9" d="M97.1,7.7V8.9c-1.1.2-1.4-.3-2.1-0.4S95.9,7.6,97.1,7.7Z"/><path class="cls-9" d="M96,82.4c-0.2.2-1.3,1.5,0,1.6s-2.3.2-2.6,0S94.3,82.3,96,82.4Z"/><path class="cls-9" d="M95,89.5a7.6,7.6,0,0,1-4.7,1.6c0-1.1-.2-2.3.5-2.8C93.1,88,93.4,89.3,95,89.5Z"/><path class="cls-9" d="M93.9,31.8c0,0.4-.6.3-1,0.4s0.4,2.2-1,3.2,0.6-1.4-2.1-1.2c0.5-1.7,2.7-1.2,1.6-3.2C92.9,30.7,92.3,32.1,93.9,31.8Z"/><path class="cls-9" d="M93.9,45.2c-1.4-.4-3-0.6-3.1-2C92.2,43.6,94.4,43.4,93.9,45.2Z"/><path class="cls-9" d="M93.9,71.3c-0.5-.8-2.7-0.3-2.6-1.6C93,69.1,94.3,69.4,93.9,71.3Z"/><path class="cls-9" d="M92.9,21.9c0,0.6.3,1.5-.5,1.6S91,21.1,92.9,21.9Z"/><path class="cls-9" d="M90.3,53.5q0.1-1.5,2.1-1.6C93.3,52.7,92.3,53.9,90.3,53.5Z"/><path class="cls-9" d="M90.3,61.8h2.1V63C91.4,62.9,90.1,62.9,90.3,61.8Z"/><path class="cls-9" d="M88.7,21.5c-0.2,1.3-4.1,1.1-3.1-.8C87.2,20.5,86.7,21.9,88.7,21.5Z"/><path class="cls-9" d="M87.6,48v1.2c-3-.6-3,1.2-5.2,1.2C83,48.7,84.8,48,87.6,48Z"/><path class="cls-9" d="M87.6,78c-0.3.4-.6,0.7,0,0.8a5.8,5.8,0,0,1-3.7.8,2.1,2.1,0,0,0,.5-2A5.7,5.7,0,0,1,87.6,78Z"/><path class="cls-9" d="M87.1-.2C87,0.8,85.3.6,84,.6S86.7-.6,87.1-0.2Z"/><path class="cls-9" d="M84.5,82c1.6,0.9-3.1,1.8-2.6,0C82.8,81.8,84,83.2,84.5,82Z"/><path class="cls-9" d="M82.9,70.1c-0.5.7,0,2.1-1.6,2S81.6,70.3,82.9,70.1Z"/><path class="cls-9" d="M82.4,59.9c-0.5.7-2.2,0.4-3.1,0.8C78.4,58.8,81.8,59.4,82.4,59.9Z"/><path class="cls-9" d="M81.9,16c0.4,1.3-.8,1.2-1,2s-1-1.3-1-2.4S80.9,16.1,81.9,16Z"/><path class="cls-9" d="M81.4,2.1c0,1.1-2.5.9-3.1,0.4S79.1,1,80.4.9,80.6,2,81.4,2.1Z"/><path class="cls-9" d="M79.3,75.7V74.1C81.3,73.8,81.3,76,79.3,75.7Z"/><path class="cls-9" d="M80.3,61.4V63H78.2Q77.8,61.2,80.3,61.4Z"/><path class="cls-9" d="M80.3,95.8c0.1,1-.2,1.7-1.6,1.6S78.6,95.4,80.3,95.8Z"/><path class="cls-9" d="M79.3,26.7c0.2,1-.7,1.3-2.1,1.2a4.5,4.5,0,0,1,0-2.8C78.8,24.9,78.1,26.5,79.3,26.7Z"/><path class="cls-9" d="M78.7,93.9c0.1,1.3-2.3,1.4-3.1.8s0.8-1.2,1-2S77.7,93.7,78.7,93.9Z"/><path class="cls-9" d="M76.6,54.3c0.1,2-1.6,1.6-.5,3.6-2.2.1-.8-2.6-2.1-3.2S75.9,54.5,76.6,54.3Z"/><path class="cls-9" d="M76.6,59.1c-0.4,1.9-3.3-.1-3.1-1.2C75.4,57.7,74.8,59.3,76.6,59.1Z"/><path class="cls-9" d="M76.1,4.5c0.1,0.7-.6.8-0.5,1.6-1.5.1-1.5-1-1.6-2S75.1,4.6,76.1,4.5Z"/><path class="cls-9" d="M74,18.3c0.2-.8.2-1.7,1.6-1.6S75.9,18.7,74,18.3Z"/><path class="cls-9" d="M75.1,80.8c-1.5-.9-1.7.6-1,1.6-1.5.3-1.4-.6-2.6-0.4C71.3,80.4,74.9,77.6,75.1,80.8Z"/><path class="cls-9" d="M70.9,97c1.5-1.9-3.1-4.3.5-5.1C69.3,93.7,74.8,96.5,70.9,97Z"/><path class="cls-9" d="M71.9,30.2c-1.8.3-1.9-.7-2.1-1.6Q71.8,28.7,71.9,30.2Z"/><path class="cls-9" d="M71.4,1.7c0.2,0.8-.4,1-0.5,1.6H69.3A1.2,1.2,0,0,1,69,1.6l0.3-.3C70.3,1.3,70.4,1.8,71.4,1.7Z"/><path class="cls-9" d="M70.9,22.7c0.1,1-.2,1.7-1.6,1.6S69.1,22.3,70.9,22.7Z"/><path class="cls-9" d="M69.8,85.2c-0.2,1.4-1.4.5-.5,2-2.2.2-1.9-1.5-2.6-2.4,0.9,0,1.1-.5,2.1-0.4A1.4,1.4,0,0,0,69.8,85.2Z"/><path class="cls-9" d="M68.8,24.3c-2.6.6-2.6-2-.5-2A2.1,2.1,0,0,1,68.8,24.3Z"/><path class="cls-9" d="M68.3,34.2c-0.9.4-.9,1.5-2.6,1.2A1.5,1.5,0,0,1,68.3,34.2Z"/><path class="cls-9" d="M67.7,92.3v2c-1.9.3-2.3-.6-2.1-2h2.1Z"/><path class="cls-9" d="M65.6,84.8c0.8,1.2-3.4,1.2-2.6,0h2.6Z"/><path class="cls-9" d="M65.1,91.1c0.5,1.3-1.4.8-1.6,1.6s-0.4-.8-1-0.8S63.8,91,65.1,91.1Z"/><path class="cls-9" d="M62.5,18.7c1.1-.1.2,1.4,0.5,2C60.6,20.7,62,19.6,62.5,18.7Z"/><path class="cls-9" d="M62,1.3c-1.6-.4-3.6-0.4-3.1-2.4C60.9-1,62.4-.5,62,1.3Z"/><path class="cls-9" d="M59.9,61.8c0.6,1.4-3.2,1.1-2.1-.4S58.9,61.9,59.9,61.8Z"/><path class="cls-9" d="M59.4,53.5c-1.4.1-1.7-.5-1.6-1.6S59.5,52.5,59.4,53.5Z"/><path class="cls-9" d="M58.3,54.3c-0.9.2,0,1.9-1,2s-1.3-.8-1.6-1.6A4.3,4.3,0,0,1,58.3,54.3Z"/><path class="cls-9" d="M57.8,49.2c-1.6.2-2-.6-3.1-0.8C55.1,47.5,58.5,47.9,57.8,49.2Z"/><path class="cls-9" d="M53.6,68.6a3,3,0,0,1,1-2.8C57.4,65.7,55.8,68.9,53.6,68.6Z"/><path class="cls-9" d="M55.2,77.6c0.2,1.4-3,1.7-2.6,0C54.2,77.9,54.2,76.9,55.2,77.6Z"/><path class="cls-9" d="M51,15.2c-0.5-1.3.8-1.2,1-2s0.5,2,1.6,2.4C53.1,16.6,51.8,15.2,51,15.2Z"/><path class="cls-9" d="M52.5,91.9a3,3,0,0,0-1.6-.4c0.1-1,.1-2,1.6-2S53.1,90.6,52.5,91.9Z"/><path class="cls-9" d="M52,54.7c0,1.7-3.7.4-2.6-1.2S49.6,55.5,52,54.7Z"/><path class="cls-9" d="M52,84.8c0.1,1-.2,1.7-1.6,1.6a1.8,1.8,0,0,1-.5-1.6H52Z"/><path class="cls-9" d="M51,64.2c-1.9.3-2.3-.6-2.1-2S51.1,62.9,51,64.2Z"/><path class="cls-9" d="M50.5,16.8c-0.1.9-1.4,0.9-2.1,0.4s-0.5.9-1.6,0.8,0.4-2.3,2.6-2C49.2,16.6,49.8,16.7,50.5,16.8Z"/><path class="cls-9" d="M49.9,93.9c-0.9-.4-1.8-0.7-1.6-2C50.2,92.1,50.6,92.7,49.9,93.9Z"/><path class="cls-9" d="M49.9,6.9q0.4,1.9-2.1,1.6Q47.5,6.6,49.9,6.9Z"/><path class="cls-9" d="M47.8,59.9V58.3C49.9,58,49.8,60.2,47.8,59.9Z"/><path class="cls-9" d="M48.9,84c0.2,1-1.1,1-2.1,1.2S47.5,83.9,48.9,84Z"/><path class="cls-9" d="M48.4,94.6C48.6,96,45,97,45.3,95,46.8,95.3,47.1,94.6,48.4,94.6Z"/><path class="cls-9" d="M47.8,74.9v1.2c-2.3-.6-1.6,1.2-3.7.8a0.6,0.6,0,0,0-.4-0.8H43.6C45.1,75.8,45.7,74.7,47.8,74.9Z"/><path class="cls-9" d="M45.7,34.2c0.1,0.6-.5.7-0.5,1.2l-2.6-1.2C43.1,33,44.8,34.3,45.7,34.2Z"/><path class="cls-9" d="M45.7,77.3v1.2H43.6C43.5,77.4,44.4,77.1,45.7,77.3Z"/><path class="cls-9" d="M45.2,25.9v1.2a3.1,3.1,0,0,1-2.6-2C44.6,24.5,43.6,26.2,45.2,25.9Z"/><path class="cls-9" d="M44.7,70.5c-0.8.8-3.7,0.1-4.7,0.8-0.2-1.7,2.1-1.5,2.6-2.8,1.1,0.3,2.1,1.2,1,2h1.1Z"/><path class="cls-9" d="M44.2,84c-0.3,1.9-2.8-.2-4.2,0,0.9-.6,1.3-1.7,3.1-1.6C43,83.3,41.8,84.2,44.2,84Z"/><path class="cls-9" d="M43.6,3.3Q43.7,4.6,42,4.5c0.3-1.3-2.6-.8-1-2S41.7,3.9,43.6,3.3Z"/><path class="cls-9" d="M43.6,13.6c0.4,1.5-2.5,1.5-2.1,0h2.1Z"/><path class="cls-9" d="M43.1,22.7c0,0.4-.6.3-1,0.4s1.2,0.4,1,1.2H41.5V22.7h1.6Z"/><path class="cls-9" d="M43.1,77.3c-1.4.3-1.1-.8-2.1-0.8s1-.3,1-0.8A1.1,1.1,0,0,1,43.1,77.3Z"/><path class="cls-9" d="M42.6,30.2c-1.5.1-1.2-1.2-2.6-1.2C40.7,28,42.9,29.2,42.6,30.2Z"/><path class="cls-9" d="M42.6,78.8c0.2,0.7-.4.7-1,0.8s0.4,1.5-2.1,1.2C39.9,79.7,40.3,78.5,42.6,78.8Z"/><path class="cls-9" d="M41,24.3q-2.5.3-2.1-1.6Q41.4,22.4,41,24.3Z"/><path class="cls-9" d="M41,50v1.2c-1-.2-2.3-0.1-2.1-1.2H41Z"/><path class="cls-9" d="M41,55.5v1.2c-0.8-.2-2.7.5-2.6-0.4S40,55.7,41,55.5Z"/><path class="cls-9" d="M41,59.5c0.4,1.5-3.4.9-2.6-.4a0.8,0.8,0,0,1,1,.6v0.2A3,3,0,0,1,41,59.5Z"/><path class="cls-9" d="M36.8,33.4c1.2-.6,1.5-1.8,3.1-2S39.2,33.7,36.8,33.4Z"/><path class="cls-9" d="M39.5,26.2c0.3,1.5-3,.3-3.1,1.6C34.9,27,37.7,26,39.5,26.2Z"/><path class="cls-9" d="M39.5,69.3c0.2,1-1.1,1-2.1,1.2,0-1.9-1.2.9-2.1-.4s0.9-.6,1-1.2S37.9,69.6,39.5,69.3Z"/><path class="cls-9" d="M39.5,74.9H37.4C36.9,73.4,39.9,73.4,39.5,74.9Z"/><path class="cls-9" d="M37.9,33.8c0.2,1-.7,1.3-2.1,1.2s0-.8,0-1.2h2.1Z"/><path class="cls-9" d="M34.2,94.3c-0.2-1.6.2-2.8,2.1-2.8,0.2,1,1.6,1.2,1.6,2.4a0.8,0.8,0,0,0-1,.6v0.2C35.6,94.8,35.7,93.9,34.2,94.3Z"/><path class="cls-9" d="M37.4,61v1.6c-1.5.1-1.5-1-1.6-2A3,3,0,0,0,37.4,61Z"/><path class="cls-9" d="M36.8,10c-0.5.9-1.8,1.3-3.7,1.2C32.9,9.7,36.2,9.7,36.8,10Z"/><path class="cls-9" d="M36.8,16.4c-1.4.5-2.3-1.2-2.1,0.4-2.7-1.2,2.3-1.7.5-3.6C36.6,13.6,37,14.8,36.8,16.4Z"/><path class="cls-9" d="M36.8,89.5c0.1,1.1-1.3,1.1-2.6,1.2s0.4-1,.5-1.6S35.8,89.6,36.8,89.5Z"/><path class="cls-9" d="M36.3,8.1V9.3H34.2C34.7,8.7,34.6,7.7,36.3,8.1Z"/><path class="cls-9" d="M35.8,64.2c-1.4.1-1.7-.5-1.6-1.6S35.9,63.2,35.8,64.2Z"/><path class="cls-9" d="M35.8,94.6c0.1,1-.2,1.7-1.6,1.6S34.4,94.7,35.8,94.6Z"/><path class="cls-9" d="M35.3,46.4a12.2,12.2,0,0,1-1,2.8c-1.6-.5.8-1.5-0.5-2-0.8,1.5-4.3.8-3.7-1.2C32.9,47,31.6,46.8,35.3,46.4Z"/><path class="cls-9" d="M30,40.9c-0.1-1.4,1.2-1.7,2.1-2.4s2.2,0.7,2.1,2c-1.7.3-1.1-1-2.1-1.2s-0.7,1.2,0,1.2S30.8,40.8,30,40.9Z"/><path class="cls-9" d="M31.6,4.1a2.3,2.3,0,0,1-2.1,2,0.6,0.6,0,0,0-.4-0.8H29A2.3,2.3,0,0,1,31.6,4.1Z"/><path class="cls-9" d="M29.5,46.8V48a0.8,0.8,0,0,1-1-.6V47.2c-0.5.4-1.9,0.1-1.6,1.2-1.2-.6-0.6-3.1,1.6-2.4a2.4,2.4,0,0,0-.5.8h1.5Z"/><path class="cls-9" d="M28.5,29.4c0.5,1.2-1.2.7-2.1,0.8V29C27.5,28.8,27.8,29.3,28.5,29.4Z"/><path class="cls-9" d="M26.9,80.4c0.8,1.2-3.4,1.2-2.6,0h2.6Z"/><path class="cls-9" d="M26.4,90.7c0.1,0.9-.4,1.3-1.6,1.2s-0.6-.8-0.5-1.6S25.4,90.8,26.4,90.7Z"/><path class="cls-9" d="M23.7,55.5c-1.5-.7-0.8-1.3-3.1-0.8V53.5C22.7,53.3,25.2,54.2,23.7,55.5Z"/><path class="cls-9" d="M24.3,65.8a2.4,2.4,0,0,0-.5.8h-1c0.4-1.1-.7-1-0.5-2C24.2,64,22.3,66.4,24.3,65.8Z"/><path class="cls-9" d="M21.6,74.5c-0.1.9-1.3,0.8-2.6,0.8S20.9,73.9,21.6,74.5Z"/><path class="cls-9" d="M21.1,61.4c-0.5,1.4-1.5.2-3.1,0.4s1-.6,1-1.2S19.5,61.9,21.1,61.4Z"/><path class="cls-9" d="M21.1,82.4a2.1,2.1,0,0,0-.5,2c-0.5-.2-0.9-0.5-1,0s-0.2-1.4-.5-2h2Z"/><path class="cls-9" d="M19.6,48c1.4,0.5,0,2.1-1.6,1.6S19.7,49,19.6,48Z"/><path class="cls-9" d="M18.5,40.5c-1.4.1-1.7-.5-1.6-1.6S18.7,39.4,18.5,40.5Z"/><path class="cls-9" d="M18,81.2c-0.1,1-.1,2-1.6,2S16.4,81.2,18,81.2Z"/><path class="cls-9" d="M16.9,42.9c-0.1,1.1-.9,1.7-2.6,1.6S15.4,42.9,16.9,42.9Z"/><path class="cls-9" d="M16.9,59.9c0.1,1-.2,1.7-1.6,1.6S15.6,59.7,16.9,59.9Z"/><path class="cls-9" d="M15.9,46a2.3,2.3,0,0,1-2.6,1.2C13.2,46.1,14.5,46.1,15.9,46Z"/><path class="cls-9" d="M14.3,11.6c0.9,0.3.3,0.9-.5,0.8s0.6,0.8.5,1.6c-2.5.6-1.3-1.7-1.6-2.8S14,12.8,14.3,11.6Z"/><path class="cls-9" d="M14.8,53.1c-0.4,1.2-1.4,1.9-3.1,2C11.5,53.5,13.7,53.7,14.8,53.1Z"/><path class="cls-9" d="M12.7,46c-1.3-.2-1.1.7-2.6,0.4S12.9,44.1,12.7,46Z"/><path class="cls-9" d="M9.6,47.2c2,0,1.5.4,3.1,0C13.5,49.2,9.4,48.3,9.6,47.2Z"/><path class="cls-9" d="M11.7,60.2c0.5,1.4-2.3.7-2.6,0.4S10.5,60.1,11.7,60.2Z"/><path class="cls-9" d="M11.2,82.4c0.4,1.3-.8,1.2-1,2s0.3-1.8-1.6-1.2C9.2,81.9,9.6,83,11.2,82.4Z"/><path class="cls-9" d="M10.6,89.9a14,14,0,0,0-1,1.6A21.1,21.1,0,0,1,8,88.7C10,88.3,8.9,90.2,10.6,89.9Z"/><path class="cls-9" d="M10.1,35.7v1.2C9.2,37,9,36.4,8,36.5s2.3,1.8,1,2.8a5.5,5.5,0,0,1-3.7-4c1.5,0.3,2.2,2.3,1.6,0C8.6,35.1,8.5,36,10.1,35.7Z"/><path class="cls-9" d="M10.1,49.6Q10.2,52.1,7,52c-0.8-1.4,1.8-.2,1.6-1.2S7,49.1,5.5,48.4c2.8,0.4.8-.8,3.7-1.6C9.3,47.9,7.2,49.9,10.1,49.6Z"/><path class="cls-9" d="M9.1,62.2H6.5c0.3-.7.3-1.6,1-2S8.6,61.5,9.1,62.2Z"/><path class="cls-9" d="M8.6,34.2c-1.4.1-2.3-.1-2.1-1.2S8.7,33.1,8.6,34.2Z"/><path class="cls-9" d="M7.5,80.8c-1.1.2-1-.6-1-1.2a3.7,3.7,0,0,1-2.1.4C3.9,78.7,6,79.4,7,79.2S7.6,80.1,7.5,80.8Z"/><path class="cls-9" d="M7,41.7a8.9,8.9,0,0,0-3.1-.8V39.7C6.1,39.4,6.6,40.5,7,41.7Z"/><path class="cls-9" d="M5.9,50.8V52H3.8C3.3,50.6,4.6,50.6,5.9,50.8Z"/><path class="cls-9" d="M5.9,67.4c-1,.4-1.7-1.2-2.1,0s0.6-1.9,1.6-2A2.1,2.1,0,0,1,5.9,67.4Z"/><path class="cls-9" d="M5.4,95c-0.5.5-.5,1.5-1,2S3.3,94.6,5.4,95Z"/><path class="cls-9" d="M3.8,23.9c0.4,1.5-2.5,1.5-2.1,0H3.8Z"/><path class="cls-9" d="M3.3,87.5c-1.6.8,0.4,2.6-2.6,2.8C0.5,88.5,1.6,87.8,3.3,87.5Z"/><path class="cls-9" d="M2.3,82q0,2-2.6,2C-0.5,82.5.9,82.3,2.3,82Z"/><path class="cls-9" d="M1.2,27.8c-0.2.5-1.3,0.3-2.1,0.4V27C0.8,26.6.4,27.7,1.2,27.8Z"/><path class="cls-9" d="M0.2,41.3c-0.5.6-.4,1.5-2.1,1.2V41.3H0.2Z"/><path class="cls-9" d="M-0.9,60.6C0,60.8.8,62.9-.4,63.4S-1.5,61.4-.9,60.6Z"/><path class="cls-9" d="M0.2,67.8c-1.7.4-2.7,3-4.7,2,0.2-.6,1.6-0.3,1-1.6,2.3,0.5,1.1-1.5,3.1-1.2a0.6,0.6,0,0,0,.4.8H0.2Z"/><path class="cls-9" d="M0.2,78.4c-1.6,1.3-2.5-1.2-3.1-2C-0.5,76.1-.6,77.6.2,78.4Z"/><path class="cls-9" d="M109.1,27.8c1-.8,3-0.3,4.2,0-1.6.9-4.1,1.1-6.3,1.6C106.8,28.2,109.6,29.3,109.1,27.8Z"/><path class="cls-9" d="M110.7,68.6c-0.5.5-1.4,0.8-1.6,1.6s-2.3-.1-2.1-1.2C108.7,69.2,109.5,68.7,110.7,68.6Z"/><path class="cls-9" d="M99.2,64.2c2.3-1.9,4.2.7,6.8-.8-0.2,1.6-2.9,1.8-4.7,3.2C103.4,65,100.9,65,99.2,64.2Z"/><path class="cls-9" d="M100.2,55.1c2.1,0.1-.1-0.5.5-1.6,3.3-.3,1.4,4.3,4.2,3.2-2,3.7-6.3-.6-5.8-3.2C100.7,53.1,100.1,54.4,100.2,55.1Z"/><path class="cls-9" d="M96.5,70.1c1.7,0.3,2.2,1.5,4.2,1.6s1.2-1.1,0-1.2c0.6-1.1,2.7,0,3.7,0s-2,1-.5,1.2c-2.5.9-4.8,1.6-6.8,0a0.4,0.4,0,0,0-.5.3h0C95.4,72.1,97.2,71.1,96.5,70.1Z"/><path class="cls-9" d="M97.6,26.3c-1.3.9,0.8,0.7,0.5,2s-1.3-.8-1.6-1.6-0.5.9-1.6,0.8,0.6,0.8.5,1.6c-2,.2-1.7-1.4-4.2-0.8,0.7-1-2.1-1.2-.5-1.6s1.1,0.4.5,0.4,2.9-.1,2.6,1.2C95,27.5,95.1,25.9,97.6,26.3Z"/><path class="cls-9" d="M92.4,70.9c-0.8,1.5,2.3.1,1.6,1.6-3.4-.9-4.3.5-5.8,2C84,73.2,90.7,71.6,92.4,70.9Z"/><path class="cls-9" d="M90.8,75.3c0.1,0.7-.6.8-0.5,1.6s-0.4-.7-0.5-1.2-1-.3-1.6-0.4a2.3,2.3,0,0,0,.5-0.8h1C89.5,75.2,90.1,75.2,90.8,75.3Z"/><path class="cls-9" d="M82.4,69.4c0.4-1.5-.6-1.9-0.5-3.2,2.9-.5,2.2,1.8,4.2,2s-1.7.3-1,1.6C84.5,68.3,84.7,68.7,82.4,69.4Z"/><path class="cls-9" d="M82.9,90.3c1.8,0.5.8,0.8,3.1,0.4-0.9,1.6-3.2,2.1-4.7,3.2A7.2,7.2,0,0,0,82.9,90.3Z"/><path class="cls-9" d="M66.7,70.9a5.7,5.7,0,0,1-.5-3.2c4.8-.2,7.5,1.2,8.9,3.6-3.5.2-5-.6-7.3,0.4S69.6,70.2,66.7,70.9Z"/><path class="cls-9" d="M68.3,79.6c-1.7-.4-2.1-1.9-2.6-3.2C67.4,76.9,67.2,78.7,68.3,79.6Z"/><path class="cls-9" d="M46.8,36.9a3,3,0,0,1,1.6-.4c0.2,1.5-3.9.6-3.1-.8S47.1,35.9,46.8,36.9Z"/><path class="cls-9" d="M43.6,89.5a2.5,2.5,0,0,1,2.6-.8c-0.5,1.5,1.4,3-.5,5.1a19.9,19.9,0,0,0-2.1-2c-0.6-.7.8-1.2,1.6-1.6s-2.3-.1-2.1-1.2S43.7,89.1,43.6,89.5Z"/><path class="cls-9" d="M41,34.9c0.6,0.1.3,0.4,0,.4,1.4,0.5,1.5,1.4,3.1.8,0.4,1.5-2.5.5-3.7,0.8s0.1-1.1-.5-1.2S41,35.5,41,34.9Z"/><path class="cls-9" d="M41,86.3c-0.3,1.5.9,1.9,0.5,3.6H39.4c-0.9-1.6.6-2.6-.5-4C39.4,84.8,39.3,87.1,41,86.3Z"/><path class="cls-9" d="M38.9,89.9c-0.6.7-.7,1.8-2.1,2V90.7C38.5,91.2,37.2,89.4,38.9,89.9Z"/><path class="cls-9" d="M33.7,68.6a1.1,1.1,0,0,1-1-1.2h0c-0.6.1-.4,0.7-0.5,1.2s-1.3-.6-2.1-0.8,1-.3,1.6-0.4,0.4-.5.5-0.8S34.1,67.2,33.7,68.6Z"/><path class="cls-9" d="M31.1,61.4c0.9-.2,0,1.5-0.5,1.6a0.9,0.9,0,0,1-1-.4V61.8C30.2,61.9,31,61.9,31.1,61.4Z"/><path class="cls-9" d="M29,93.9a3,3,0,0,1,1.6-.4c-0.5,1.4-1.5.2-3.1,0.4,0.1-.7-0.6-0.8-0.5-1.6C27.1,93.2,29.2,92.7,29,93.9Z"/><path class="cls-9" d="M25.8,41.3c1.7-.2,1,2.3,2.1.4,1.3,0.1.2,1.3,0,1.6-2.1-.9-1.5.5-3.7,0.4C24.6,42.7,26.6,43,25.8,41.3Z"/><path class="cls-9" d="M26.9,93.5c-1.4.5-1.2,2.2-3.7,2,0.2-1-1-.9-0.5-2C25,93.3,25.3,94,26.9,93.5Z"/><path class="cls-9" d="M24.8,77.6c-1.6-.3-2.5-1-2.6-2.4C23,76.1,24.6,76.4,24.8,77.6Z"/><path class="cls-9" d="M22.2,31.4h1.6c-1.1.9-2.1,1.8-1.6,4-2-.3-2.5,1.6-4.2.4,0.7-1,1.1-1.2,2.6-.8-0.2-1.8-2,0-2.1-2C21,33.7,21.4,32.8,22.2,31.4Z"/><path class="cls-9" d="M20.6,91.9c0.6-1.1.6,0.6,0,.8a10.8,10.8,0,0,1-3.7-.8c-1.6.3,0.5,0.8,0,1.6h3.7c1.7,0.5-1.8.4-2.6,0.4s1.7,0.3,1,1.6c-3.4.2-2.3-1.1-5.2-1.6,1-2.2,2.6-3,4.7-3.6-0.1,1.1,1.6.9,1.6,2a0.4,0.4,0,0,0,.5-0.3h0Z"/><path class="cls-9" d="M20.6,63c-0.5,2-1.7-.8-3.1.4,0.7,0.2.1,1.5,1,1.6-0.7,1.1-1.9-.7-1.6-1.6a1.6,1.6,0,0,1,.5-0.8C17.5,62.3,20.1,62.7,20.6,63Z"/><path class="cls-9" d="M16.4,68.9c-0.4,1.8-1.1,1-.5,3.2-2.7.9-6.7-1.3-9.4,0.8,0-1,.4-0.5,1-0.4a48,48,0,0,0-3.1-4c1.8-.2,3.8-0.3,4.7-1.2,1.6,0.6-.7,1.6-1,2a1.6,1.6,0,0,1,.5,1.2C11.9,70,14.8,71.1,16.4,68.9Z"/><path class="cls-9" d="M14.3,42.5c1.3,0.6-3.5,0-2.6-1.6S13.1,42.2,14.3,42.5Z"/><path class="cls-9" d="M13.3,50.4a3,3,0,0,1-2.1,2.8C11.6,52,11.9,50.8,13.3,50.4Z"/><path class="cls-9" d="M8,18.7c1.5,1.1-2-.8-2.1.4s-0.4-1-.5-1.6C7.4,17.1,7.1,18.4,8,18.7Z"/><path class="cls-9" d="M5.9,20.3c1,0,.7-1.1,2.1-0.8s0.6,0.8.5,1.6-2.8-.2-3.1-1.2S6,19.9,5.9,20.3Z"/><path class="cls-9" d="M8,7.3C7.3,6.6,5.3,5.9,6.4,4.9S7.2,6.2,8,7.3Z"/><path class="cls-9" d="M1.2,64.2c-0.5,0-.4.5-0.5,0.8a1.7,1.7,0,0,0,0-1.6c1.6,0,3.2,0,3.1,1.2C2.7,63.5,1.9,66,1.2,64.2Z"/><path class="cls-9" d="M0.7,20.7c2.4,1.6-2.3,1.1-2.1,2.4C-3,22.1.1,21.3,0.7,20.7Z"/><path class="cls-9" d="M-4,72.1c2.2,1,1-.9,3.1-0.8C-0.6,72.4.4,73,.7,74.1c-1.8.4-2.8-1.8-4.2-.4,0.2,1.3,2-1.1,1.6.8H-4C-4,73-3.4,73.4-4,72.1Z"/><path class="cls-9" d="M91.3,63c0.5,0.3.3,1.1,1,1.2s-2.8.8-1.6,2.4c-2.8-.6-4.7.9-5.8,0.4s0.9-1.2.5-2.4c-0.8.5-2.1,0.5-2.6,1.2a1.7,1.7,0,0,1-1-1.6C84.6,65,83,62.5,85.5,63c-0.2-.8-2-0.3-1.6-1.6,2.9-.3,2.3,1.9,3.7,2.8S89,62.6,91.3,63Z"/><path class="cls-9" d="M80.8,63.8c-1.7.8-3.9,1.3-5.8,2,0.2,1.3,2.5,1,3.7,1.6-0.4,1.7,1,1.9,1,3.2-2.5.7-3.6-2-6.8-2,0.3-.9-1.5-3.2-3.7-3.6a10.4,10.4,0,0,0,1.6-2,3,3,0,0,0,1.6.4c-0.3-1.7-1.7-2.1-3.1-3.6h4.2c0.8,1.4,2.6,2,2.1,4.4C77.7,64.4,79.4,62.9,80.8,63.8Z"/><path class="cls-9" d="M60.4,7.3c-0.4,1.2-.6,2.4-2.1,2.8,0.9,0.7-.3,2.9,1.6,2.8-1.3,1.3-2.3.4-4.2,1.2,0.1-1.3-2.4-1.8-4.2-2.8,0.1-.7.9-0.9,2.1-0.8-1.1-.7-0.1-3.1-2.6-2.8,0.7-1.2-1-2.2-1-4,2.7,1.1,10.1.3,8.9,3.2C59.7,6.8,59.7,7.3,60.4,7.3Z"/></g></g></g></g></svg>