<svg id="圖層_1" data-name="圖層 1" xmlns="http://www.w3.org/2000/svg" viewBox="0 0 433.2 206.2"><defs><style>.cls-1{fill:#e1a98c;}.cls-2{fill:#e66d42;}.cls-3{fill:#4a3c3a;}.cls-4{fill:#78314b;}.cls-5{fill:#d15549;}.cls-6{fill:#f7bda7;}.cls-7{fill:#7a7262;}.cls-8{fill:#918976;}.cls-9{fill:#4d959a;}.cls-10{font-size:22px;fill:#292b2a;}.cls-10,.cls-12{font-family:Microsoft JhengHei;font-weight:700;}.cls-11{fill:#fff;}.cls-12{writing-mode:tb;text-orientation:upright;glyph-orientation-vertical:0deg;font-size:25px;fill:#181818;letter-spacing:6.32px;}</style></defs><title>ourstory</title><path class="cls-1" d="M371.9,102.9l-2.7,12s-11,8-11.4,9.9a3.1,3.1,0,0,0,4.8,3.2c3.3-1.8,12.6-11.1,12.6-11.1l2.6-9.8Z"/><path class="cls-1" d="M408.8,105.1a30.6,30.6,0,0,1,4.2,10.6c0.8,5.5,1,20.4,1,20.4s0,4.6,3.4,4.4c0,0,4.6-.1,3.9-4.2,0,0-.5-1.8-2-1.5l-0.5-20.4a17,17,0,0,0-1.8-7l-2.7-5.4Z"/><path class="cls-2" d="M369.9,105.1s1.1-12.9,3.8-17.3S379,83,379,83l6.4-3.7s9-3.4,15.5.4c0,0,4.3,1.8,7.4,8.1l8,15.1-8.4,4.5-2.9-4.7s1.4,13.1,1.5,17.3H381.2s1.3-13.1-1.3-17.3l-1.6,6.5Z"/><ellipse class="cls-1" cx="373.7" cy="70.6" rx="10.1" ry="11.6"/><path class="cls-1" d="M376.2,78.9l2.8,4.2s1.7,4.7,5.3,2.9c0,0,3.6-1.6,1.2-6.7l-3.2-4.7Z"/><path class="cls-3" d="M361.9,65.1s1.5,2.9,5.2.7c0,0,5.6-2.6,7.9,1.7a14.3,14.3,0,0,1,1.2,4.1s2.4-3,3.7-.2a2.9,2.9,0,0,1-1.7,3.7l-0.6.2a6.5,6.5,0,0,0,4.8,1.1s9.4-8.5,0-18c0,0-4.1-4.8-13.6-1.5C368.9,56.9,362.6,59.7,361.9,65.1Z"/><ellipse class="cls-3" cx="385.7" cy="58.4" rx="6.2" ry="5.2"/><path class="cls-3" d="M384.3,201.5l-19.5-4.2s0.1-3.7,7.8-2.1l11.8,3v3.3h-0.1Z"/><path class="cls-1" d="M381.1,179.6l-3,15.1-5.5.5s7.9,3.6,11.8,3l3.3-16.9Z"/><path class="cls-3" d="M415.8,196.1l-19.3,5.1s-1.6-3.4,6-5.4l11.9-2.6Z"/><path class="cls-1" d="M403.1,178l4.1,14.8-4.7,2.9s8.7-.4,11.9-2.6l-4.7-16.5Z"/><path class="cls-4" d="M381.2,120.1s-3.6,16.1-3,31.1a181.4,181.4,0,0,1-2,31.2s23.9,6.9,38.1,0c0,0,2-33.2-3-48.9-2.7-8.3-4.8-13.4-4.8-13.4H381.2Z"/><path class="cls-5" d="M281.9,201.5h-0.1a1.4,1.4,0,0,1-1.3-1.4l2.9-76.7a1.4,1.4,0,1,1,2.7.1l-2.9,76.7A1.4,1.4,0,0,1,281.9,201.5Z"/><path class="cls-5" d="M297.3,128.1a1.8,1.8,0,0,1-1.1-.3c-3.3-2.4-9.3-2.6-11.4-2.5a1.8,1.8,0,1,1-.2-3.6c0.4,0,8.7-.4,13.7,3.2A1.8,1.8,0,0,1,297.3,128.1Z"/><path class="cls-6" d="M305.4,107s-1.1,10.6-1.6,10.9-14.6-3.2-16.8-1.4-2.7,2.6-2,4.1,4.4,2.1,4.4,2.1,0.3,1.8,1.7,1.6a2.4,2.4,0,0,0,1.8-1.4s12.7,2.1,14.4,1.2,3.5-2,3.9-4.2,1-11.2,1-11.2Z"/><polygon class="cls-7" points="305.4 93.8 304.3 107.9 313.4 109.2 314.3 97.3 305.4 93.8"/><path class="cls-8" d="M344.9,93.1A70.7,70.7,0,0,0,331.5,79c-7.7-4.8-16.5-1-16.5-1l-7.8,4.1c-5.1,5.1-1.9,12.2-1.9,12.2,4.4,8.4,7.1,11,8.9,17.3,1.8,9.7,3.5,15.5,3.5,15.5H345a130.1,130.1,0,0,0-3.6-28.5Z"/><path class="cls-6" d="M309.1,73.2l5.9,4.9s0.9,7.4-3.5,9.5c0,0-3.2,1.3-4.1-.8a8.7,8.7,0,0,1-.2-4.5l-4-3.1Z"/><path class="cls-6" d="M312,68.4c-0.5,6.8-4.7,12.3-10.5,12.3s-9.6-5.5-9.6-12.3,3.8-12.3,9.6-12.3S312.6,61,312,68.4Z"/><path class="cls-3" d="M313.5,64.6s0.1-6.6-5.9-8.8c0,0-6.7-2.9-6.7.3a11.4,11.4,0,0,1,2,5.6v8.4h2a1.9,1.9,0,0,1,1.6-.9,2,2,0,0,1,.4,3.9,5.1,5.1,0,0,0,3,2.5C311.1,75.8,314.2,73.6,313.5,64.6Z"/><path class="cls-9" d="M317.6,127.2s-8.4,25.1-8.4,32.5-1,36.5-1,36.5h9.4l2.3-36.5,8.6-19.6s-1.6,18.9,0,23.4,13.7,30.2,13.7,30.2l7.4-2.9-11.5-30.9,5-21.6s2-7.1,1.8-11.1H317.6Z"/><path class="cls-3" d="M319.4,201.5h-19a4.4,4.4,0,0,1,0-4.6,4.6,4.6,0,0,1,5.3-1.4l11.7,0.6a1.5,1.5,0,0,1,1.4,1.2Z"/><path class="cls-3" d="M353.2,194.2l-12.5,7.3h-6.4a2.9,2.9,0,0,1-1.5-3.1s0.5-3.9,5.4-3.1l11.1-5.2a2.1,2.1,0,0,1,2.1.8Z"/><path class="cls-6" d="M340.4,100.1l4.5-7s3.8,6.2,6.2,10.5,8.4,18,8.4,18,6.1,3.9,3.5,7.5c0,0-3.1,3-7-1.9l-10.2-21Z"/><text class="cls-10" transform="translate(8 190.4) scale(1 0.95)">台積電走入＿＿學校</text><rect class="cls-11" x="218" y="5.9" width="38.5" height="194.13"/><text class="cls-12" transform="translate(237.2 13.2) scale(1 0.95)">提倡孝道觀念</text></svg>